<?xml version="1.0" encoding="utf-8"?>
<!-- Generator: Adobe Illustrator 26.0.1, SVG Export Plug-In . SVG Version: 6.00 Build 0)  -->
<svg version="1.1" id="Layer_1" xmlns="http://www.w3.org/2000/svg" xmlns:xlink="http://www.w3.org/1999/xlink" x="0px" y="0px"
	 viewBox="0 0 100 100" style="enable-background:new 0 0 100 100;" xml:space="preserve">
<style type="text/css">
	.st0{fill:#059669;}
</style>
<g id="Layer_2_00000000216693312104799890000018212368356619983283_">
</g>
<g id="Layer_1_00000011002461499423937660000016538978609723840190_">
	<g>
		<path class="st0" d="M3.5,47.9l93.1-0.3c2.2,0,3.4-2.3,2.2-4l-15-21c-0.5-0.7-1.3-1.1-2.2-1.1h-11C68.5,30.9,60.1,37.8,50,37.8
			s-18.4-6.8-20.5-16l-11,0.1c-0.9,0-1.6,0.4-2.2,1.1l-15.1,21C0.1,45.6,1.3,47.9,3.5,47.9z"/>
		<path class="st0" d="M98.3,90.5h-6.6V51L8.3,51.3v39.6H1.7c-1,0-1.7,0.7-1.7,1.7v7.4h100v-7.8C100,91.3,99.2,90.5,98.3,90.5z
			 M31.8,77.9c0,1-0.9,1.7-1.9,1.7H19c-1,0-1.7-0.8-1.7-1.7V67.5c0-1,0.8-1.7,1.7-1.7H30c1,0,1.7,0.8,1.7,1.7V77.9z M55.8,77.9
			c0,1-0.9,1.7-1.8,1.7H43c-1,0-1.7-0.8-1.7-1.7V67.5c0-1,0.8-1.7,1.7-1.7H54c1,0,1.7,0.8,1.7,1.7V77.9z M81.9,93.3l-16.7,0.1v-26
			c0-1,0.8-1.7,1.7-1.7h13.2c1,0,1.7,0.8,1.7,1.7V93.3z"/>
		<path class="st0" d="M55,0.7c-0.2-0.1-0.5-0.1-0.7-0.2c0,0,0,0,0,0c-0.5-0.1-1.1-0.2-1.6-0.3c-0.3,0-0.6-0.1-0.8-0.1
			C51.2,0,50.6,0,50,0s-1.2,0-1.8,0.1c-0.3,0-0.6,0.1-0.8,0.1c-0.5,0.1-1.1,0.2-1.6,0.3c0,0,0,0,0,0c-0.2,0.1-0.5,0.1-0.7,0.2
			c-7.4,2.1-12.9,8.8-12.9,16.7c0,0.1,0,0.2,0,0.2c0.1,9.5,8.1,17.1,17.9,17.1s17.8-7.7,17.9-17.1c0-0.1,0-0.2,0-0.2
			C67.9,9.5,62.5,2.8,55,0.7z M60.5,21h-6.8v6.6h-7.3V21h-6.8v-7.2h6.8V7.3h7.3v6.6h6.8V21z"/>
	</g>
</g>
</svg>
